HIERARCHY
ROOT Hips
{
  OFFSET 265.287 66.7526 -254.649
  CHANNELS 6 Xposition Yposition Zposition Zrotation Xrotation Yrotation
  JOINT LeftUpLeg
  {
    OFFSET 8.64259 1.95398 -2.38835
    CHANNELS 3 Zrotation Xrotation Yrotation
    JOINT LeftLeg
    {
      OFFSET 43.7702 0 0
      CHANNELS 3 Zrotation Xrotation Yrotation
      JOINT LeftFoot
      {
        OFFSET 40.6238 0 0
        CHANNELS 3 Zrotation Xrotation Yrotation
        JOINT LeftToeBase
        {
          OFFSET 12.7242 0 0
          CHANNELS 3 Zrotation Xrotation Yrotation
          End Site
          {
            OFFSET 0 0 0
          }
        }
      }
    }
  }
  JOINT RightUpLeg
  {
    OFFSET -8.2249 1.95398 -2.59336
    CHANNELS 3 Zrotation Xrotation Yrotation
    JOINT RightLeg
    {
      OFFSET 43.5653 0 0
      CHANNELS 3 Zrotation Xrotation Yrotation
      JOINT RightFoot
      {
        OFFSET 40.6238 0 0
        CHANNELS 3 Zrotation Xrotation Yrotation
        JOINT RightToeBase
        {
          OFFSET 12.7242 0 0
          CHANNELS 3 Zrotation Xrotation Yrotation
          End Site
          {
            OFFSET 0 0 0
          }
        }
      }
    }
  }
  JOINT Spine
  {
    OFFSET 0.165834 0.87714 6.61349
    CHANNELS 3 Zrotation Xrotation Yrotation
    JOINT Spine1
    {
      OFFSET 7.38963 1.71661e-005 0
      CHANNELS 3 Zrotation Xrotation Yrotation
      JOINT Spine2
      {
        OFFSET 11.9445 1.14441e-005 0
        CHANNELS 3 Zrotation Xrotation Yrotation
        JOINT Spine3
        {
          OFFSET 14.7254 4.19617e-005 0
          CHANNELS 3 Zrotation Xrotation Yrotation
          JOINT Spine4
          {
            OFFSET 10.9679 0 0
            CHANNELS 3 Zrotation Xrotation Yrotation
            JOINT RightShoulder
            {
              OFFSET 2.46616 -1.6653 3.69651
              CHANNELS 3 Zrotation Xrotation Yrotation
              JOINT RightArm
              {
                OFFSET 13.0012 0 0
                CHANNELS 3 Zrotation Xrotation Yrotation
                JOINT RightForeArm
                {
                  OFFSET 28.7848 1.52588e-005 0
                  CHANNELS 3 Zrotation Xrotation Yrotation
                  JOINT RightHand
                  {
                    OFFSET 26.5688 1.52588e-005 0
                    CHANNELS 3 Zrotation Xrotation Yrotation
                    End Site
                    {
                      OFFSET 0 0 0
                    }
                  }
                }
              }
            }
            JOINT LeftShoulder
            {
              OFFSET 2.38034 -1.29275 -3.7523
              CHANNELS 3 Zrotation Xrotation Yrotation
              JOINT LeftArm
              {
                OFFSET 16.3182 6.10351e-005 0
                CHANNELS 3 Zrotation Xrotation Yrotation
                JOINT LeftForeArm
                {
                  OFFSET 27.0901 0 0
                  CHANNELS 3 Zrotation Xrotation Yrotation
                  JOINT LeftHand
                  {
                    OFFSET 24.5451 1.52588e-005 0
                    CHANNELS 3 Zrotation Xrotation Yrotation
                    End Site
                    {
                      OFFSET 0 0 0
                    }
                  }
                }
              }
            }
            JOINT Neck
            {
              OFFSET 5.0226 -0.0266342 0
              CHANNELS 3 Zrotation Xrotation Yrotation
              JOINT Head
              {
                OFFSET 6.69364 2.86102e-005 0
                CHANNELS 3 Zrotation Xrotation Yrotation
                End Site
                {
                  OFFSET 0 0 0
                }
              }
            }
          }
        }
      }
    }
  }
}
MOTION
Frames:	7
Frame Time:	0.0416667
-297.026 58.5235 324.473 -102.806 -56.5609 -112.35 162.42 60.005 93.4941 -118.698 24.9382 -2.7375 88.3759 21.7123 20.7364 31.9214 8.62425 -74.5514 -173.787 50.969 61.5307 -113.641 -0.150842 1.51685 100.274 2.07825 21.0618 34.5003 -0.467032 -5.65051 -2.64441 7.78686 -88.593 11.3653 -4.60611 3.26389 -0.302081 -4.45807 3.46353 -22.8911 -5.37357 1.72627 -2.87843 -5.37355 1.72628 71.1447 -32.6902 -139.654 34.332 35.7461 62.7518 162.323 -1.83957 -46.8973 4.94555 -3.52854 -69.415 -112.275 -50.7783 46.8581 -15.6275 -31.6289 61.041 45.6114 12.3397 -66.3407 32.3661 -5.69043 -22.1446 -70.2283 41.3275 19.0888 134.414 56.0592 -6.68127 
-297.87 58.1225 325.428 -103.052 -56.5181 -112.919 161.455 61.4424 94.3661 -116.688 26.0067 -2.80105 85.6325 20.0573 20.659 34.627 4.82587 -76.7039 -174.212 49.9621 61.5392 -114.518 -1.36115 1.48568 101.595 1.00708 19.1812 35.6923 -0.71954 -5.26391 -2.62944 7.76708 -88.5661 11.4049 -4.56302 3.31575 -0.26279 -4.41275 3.51342 -22.8498 -5.34803 1.78884 -2.83716 -5.34803 1.78883 70.7078 -33.4393 -139.817 33.3277 35.5968 63.5574 161.738 -2.7731 -46.5191 4.44069 -3.17295 -68.7671 -112.565 -50.985 46.5722 -14.9651 -30.8821 58.7817 46.6153 12.7169 -67.0241 33.0237 -5.99367 -22.7258 -70.5736 40.7514 18.9469 134.261 55.9689 -6.26461 
-300.074 56.9861 327.944 -103.707 -56.3826 -114.461 159.183 64.456 96.2961 -110.882 28.3743 -2.84533 78.7222 15.395 20.1328 43.3018 -7.42622 -79.4926 -175.384 47.1307 61.5372 -116.68 -5.39154 1.42093 104.744 -2.66418 13.4163 39.3384 -1.42861 -4.6145 -2.58999 7.71827 -88.497 11.5024 -4.45035 3.44856 -0.166075 -4.29436 3.64108 -22.7479 -5.28049 1.94971 -2.73523 -5.2805 1.9497 69.5812 -35.3682 -140.225 30.7664 35.165 65.5909 160.253 -5.27079 -45.6416 3.206 -2.33188 -67.1584 -113.318 -51.5347 45.8415 -13.5194 -28.9645 52.6676 48.3116 13.6591 -67.8682 34.162 -6.79263 -24.4856 -71.4407 39.1681 18.6434 133.839 55.5797 -5.16191 
-303.131 55.2086 331.508 -104.629 -56.144 -116.69 157.046 66.803 97.7092 -101.614 30.811 -2.50854 69.7894 8.52134 18.5299 62.8368 -33.7336 -74.7619 -177.102 42.5749 61.3224 -119.298 -12.6798 1.35996 107.98 -9.35603 4.2235 45.0624 -2.49277 -4.74262 -2.53535 7.65726 -88.4091 11.6237 -4.2982 3.61603 -0.0456745 -4.13502 3.80165 -22.6205 -5.18573 2.15563 -2.60785 -5.18573 2.15563 68.0751 -37.9383 -140.75 27.3979 34.4839 68.2282 158.33 -8.80843 -44.6772 1.70834 -1.37327 -65.1104 -114.358 -52.3303 44.8674 -12.0299 -26.4661 44.0748 48.6744 15.0712 -67.2095 34.7138 -7.77431 -27.0115 -72.5831 36.7937 18.404 133.193 54.7383 -3.58865 
-306.56 53.0668 335.628 -105.674 -55.8008 -119.315 156.514 66.9379 97.1101 -89.4033 32.7984 -1.47719 60.1521 0.713722 15.4344 109.645 -49.5014 -30.5491 -179.123 36.45 60.564 -121.495 -21.8068 1.26898 109.805 -17.5608 -5.99743 51.1648 -3.74105 -5.98882 -2.48161 7.60241 -88.3307 11.7323 -4.15232 3.76392 0.0620186 -3.98278 3.94292 -22.5062 -5.09102 2.34095 -2.49356 -5.09102 2.34093 66.5463 -40.5319 -141.264 23.9676 33.666 70.8867 156.347 -12.8464 -43.9283 0.285715 -0.528503 -63.0163 -115.488 -53.2907 43.8814 -10.9516 -24.0364 34.8927 47.1916 16.8547 -64.7892 34.6041 -8.48954 -29.1437 -73.7651 33.8194 18.5291 132.388 53.3612 -1.75634 
-309.884 51.0475 339.729 -106.71 -55.364 -122.077 157.593 64.2556 94.6936 -74.6293 34.4818 0.162675 50.0129 -6.80669 10.7379 140.577 -34.9469 7.25513 178.737 29.6139 59.1696 -122.636 -30.0367 1.0592 110.191 -24.7251 -14.5057 56.1553 -4.9287 -7.45283 -2.45728 7.57542 -88.29 11.7858 -4.0838 3.84116 0.11507 -3.91091 4.01705 -22.4499 -5.04885 2.43541 -2.43727 -5.04886 2.43541 65.407 -42.4356 -141.648 21.1822 32.919 73.0716 154.482 -16.9461 -43.5656 -0.913782 0.129748 -61.1114 -116.453 -54.3522 43.1813 -10.7086 -22.1848 26.6099 44.7084 18.7273 -61.2913 34.3882 -8.65446 -29.7718 -74.71 30.3857 19.4155 131.539 51.3894 0.109859 
-312.572 49.708 343.092 -107.635 -54.8565 -124.762 159.096 58.7119 91.9754 -57.1555 36.1719 1.70898 38.9794 -13.1464 4.51083 145.992 -18.8169 22.5265 176.807 23.7967 57.2659 -122.659 -35.5608 0.659788 109.631 -29.1871 -20.1166 59.8277 -5.8358 -8.16431 -2.50852 7.60296 -88.3073 11.7327 -4.1948 3.81513 0.0623411 -4.02298 3.99595 -22.5064 -5.14692 2.37699 -2.49374 -5.14691 2.37699 65.1048 -42.8315 -141.819 19.7926 32.5072 74.3085 152.716 -20.8161 -43.7076 -1.86502 0.61339 -59.5287 -116.91 -55.4785 43.1794 -11.7377 -21.0511 19.8455 41.8791 20.5027 -57.0674 34.5957 -8.05066 -27.9019 -75.0225 26.5971 21.5826 130.803 48.7064 1.74646 
